<svg xmlns="http://www.w3.org/2000/svg" viewBox="0 0 400 300" role="img" aria-label="Estudiante de Atencion a la Primera Infancia">
  <defs>
    <linearGradient id="in-bg" x1="0" y1="0" x2="1" y2="1">
      <stop offset="0" stop-color="#eaf6fc"/><stop offset="1" stop-color="#e6f7ea"/>
    </linearGradient>
  </defs>
  <rect width="400" height="300" fill="url(#in-bg)"/>
  <rect y="240" width="400" height="60" fill="#d4ecdc"/>
  <!-- sun -->
  <g transform="translate(322,44)">
    <circle cx="26" cy="26" r="20" fill="#9BD45A"/>
    <g stroke="#5DAE3A" stroke-width="4" stroke-linecap="round">
      <line x1="26" y1="-2" x2="26" y2="6"/><line x1="26" y1="46" x2="26" y2="54"/>
      <line x1="-2" y1="26" x2="6" y2="26"/><line x1="46" y1="26" x2="54" y2="26"/>
    </g>
  </g>
  <!-- educator (woman) -->
  <g transform="translate(70,86)">
    <path d="M0 214 q52 -64 104 0 Z" fill="#2E9BD6"/>
    <rect x="0" y="160" width="104" height="64" rx="32" fill="#2E9BD6"/>
    <rect x="42" y="126" width="22" height="30" rx="9" fill="#e8b48f"/>
    <circle cx="53" cy="98" r="32" fill="#f3c19c"/>
    <path d="M18 100 a35 35 0 0 1 70 0 q6 -42 -35 -44 q-41 2 -35 44 Z" fill="#7a4a2a"/>
    <path d="M18 96 q-4 36 10 54 l6 -12 q-12 -18 -8 -40 Z" fill="#7a4a2a"/>
    <circle cx="42" cy="98" r="3.2" fill="#3a2a1c"/>
    <circle cx="64" cy="98" r="3.2" fill="#3a2a1c"/>
    <path d="M46 112 q7 7 16 0" fill="none" stroke="#b9744f" stroke-width="3" stroke-linecap="round"/>
    <!-- arm hugging child -->
    <path d="M100 176 q40 10 56 40" fill="none" stroke="#f3c19c" stroke-width="18" stroke-linecap="round"/>
  </g>
  <!-- child -->
  <g transform="translate(206,150)">
    <path d="M0 150 q34 -44 68 0 Z" fill="#F4A93B"/>
    <rect x="0" y="112" width="68" height="44" rx="22" fill="#F4A93B"/>
    <rect x="26" y="86" width="16" height="22" rx="6" fill="#f0c19a"/>
    <circle cx="34" cy="66" r="24" fill="#ffd2a6"/>
    <path d="M10 66 a24 24 0 0 1 48 0 q4 -28 -24 -30 q-28 2 -24 30 Z" fill="#3a2a1c"/>
    <circle cx="26" cy="66" r="2.6" fill="#2a1c12"/>
    <circle cx="42" cy="66" r="2.6" fill="#2a1c12"/>
    <path d="M28 76 q6 5 12 0" fill="none" stroke="#c77f4f" stroke-width="2.6" stroke-linecap="round"/>
  </g>
  <!-- abc block -->
  <g transform="translate(300,200)">
    <rect width="54" height="54" rx="10" fill="#5DAE3A"/>
    <text x="27" y="38" font-family="Poppins,Arial" font-size="30" font-weight="700" fill="#fff" text-anchor="middle">A</text>
  </g>
</svg>
